<?xml version="1.0" standalone="no"?>
<!DOCTYPE svg PUBLIC "-//W3C//DTD SVG 1.1//EN" "http://www.w3.org/Graphics/SVG/1.1/DTD/svg11.dtd" >
<svg xmlns="http://www.w3.org/2000/svg" xmlns:xlink="http://www.w3.org/1999/xlink" version="1.1">
<metadata>
Created by FontForge 20170731 at Fri Jun  9 15:38:53 2017
 By Aleksey,,,
Copyright (c) 2017 by Bruno Perotto. All rights reserved.
</metadata>
<defs>
<font id="CitiesTypeface" horiz-adv-x="822" >
  <font-face 
    font-family="Cities Typeface"
    font-weight="400"
    font-stretch="normal"
    units-per-em="1000"
    panose-1="2 0 0 0 0 0 0 0 0 0"
    ascent="750"
    descent="-250"
    x-height="700"
    cap-height="700"
    bbox="-70 -212 1088 912"
    underline-thickness="50"
    underline-position="-150"
    unicode-range="U+0020-2212"
  />
<missing-glyph horiz-adv-x="480" 
 />
    <glyph glyph-name=".notdef" horiz-adv-x="480" 
 />
    <glyph glyph-name=".null" horiz-adv-x="0" 
 />
    <glyph glyph-name="nonmarkingreturn" horiz-adv-x="480" 
 />
    <glyph glyph-name="space" unicode=" " horiz-adv-x="480" 
 />
    <glyph glyph-name="space" unicode="&#xa0;" horiz-adv-x="480" 
 />
    <glyph glyph-name="exclam" unicode="!" horiz-adv-x="268" 
d="M174 700v-550h-50v550h50zM180 91v-91h-62v91h62z" />
    <glyph glyph-name="quotedbl" unicode="&#x22;" horiz-adv-x="322" 
d="M64 480l66 220h53l-67 -220h-52zM164 480l66 220h53l-67 -220h-52z" />
    <glyph glyph-name="numbersign" unicode="#" horiz-adv-x="667" 
d="M390 225h-138l-22 -225h-50l22 225h-105v48h110l16 154h-105v48h109l23 225h50l-23 -225h138l23 225h50l-23 -225h111v-48h-115l-16 -154h110v-48h-115l-22 -225h-50zM257 273h138l16 154h-138z" />
    <glyph glyph-name="dollar" unicode="$" horiz-adv-x="642" 
d="M276 633q-26 -2 -52.5 -9.5t-48.5 -21t-36 -34t-14 -48.5q0 -29 14.5 -49t37 -33.5t49 -22t50.5 -13.5v231zM326 754v-70q42 -3 78 -17t62 -35.5t40.5 -50t14.5 -61.5h-47q0 23 -11.5 42.5t-32 34t-47.5 23.5t-57 12v-240q43 -9 84.5 -22.5t74.5 -37t53 -60t20 -90.5
q0 -47 -21 -82t-54.5 -59t-75 -37t-81.5 -15v-80h-50v81q-40 4 -79.5 17t-71 36.5t-51 57.5t-19.5 81h47q0 -35 16 -60t41.5 -42.5t56 -27t60.5 -12.5v313q-33 6 -68.5 17t-64 30.5t-47 48.5t-18.5 71q0 38 16.5 67t44.5 49.5t63.5 32.5t73.5 15v70h50zM511 182q0 41 -17 69
t-43.5 46t-59.5 28.5t-65 17.5v-305q31 2 63.5 11t59.5 26.5t44.5 44t17.5 62.5z" />
    <glyph glyph-name="percent" unicode="%" horiz-adv-x="790" 
d="M548 705h48l-350 -705h-48zM93 520q0 -28 8.5 -53t23 -43.5t34 -29.5t42.5 -11q22 0 42 11t35 29.5t23.5 43.5t8.5 53q0 29 -8.5 54.5t-23.5 44.5t-35 30t-42 11q-23 0 -42.5 -11t-34 -30t-23 -44.5t-8.5 -54.5zM53 520q0 37 11.5 70t31.5 57.5t47 38.5t58 14t58 -14
t47 -38.5t32 -57.5t12 -70q0 -36 -12 -68t-32 -56.5t-47 -38.5t-58 -14t-58 14t-47 38.5t-31.5 56.5t-11.5 68zM482 178q0 -28 8.5 -53t23 -43.5t34 -29.5t42.5 -11q22 0 42 11t35 29.5t23.5 43.5t8.5 53q0 29 -8.5 54.5t-23.5 44.5t-35 30t-42 11q-23 0 -42.5 -11t-34 -30
t-23 -44.5t-8.5 -54.5zM442 178q0 37 11.5 70t31.5 57.5t47 38.5t58 14t58 -14t47 -38.5t32 -57.5t12 -70q0 -36 -12 -68t-32 -56.5t-47 -38.5t-58 -14t-58 14t-47 38.5t-31.5 56.5t-11.5 68z" />
    <glyph glyph-name="ampersand" unicode="&#x26;" horiz-adv-x="833" 
d="M307 40q16 0 43.5 1.5t59.5 8.5t66 21.5t63 40.5l-268 249q-33 -15 -64 -32t-55 -37t-38.5 -44.5t-14.5 -55.5q0 -45 24 -74t57.5 -46.5t69 -24.5t57.5 -7zM183 563q0 -38 18.5 -62t37.5 -41l41 -38q30 14 58.5 29t50 32t35 37t13.5 43q0 21 -10.5 39t-28.5 30.5
t-41.5 20t-49.5 7.5t-48.5 -7.5t-39.5 -20t-26.5 -30.5t-9.5 -39zM659 0l-81 76q-34 -30 -73.5 -47.5t-77 -26t-69.5 -10.5t-51 -2q-18 0 -44.5 4t-55 13t-57 24.5t-51 37.5t-36.5 52.5t-14 70.5q0 39 15.5 70t41 55.5t58 44.5t67.5 37l-26 24q-12 10 -25 23.5t-23.5 30
t-17 38t-6.5 48.5q0 32 13.5 59t37 46.5t55.5 30.5t68 11q37 0 69.5 -11t57 -30.5t39 -46.5t14.5 -59q0 -34 -13.5 -60t-37 -47t-53.5 -38t-63 -33l253 -236q21 30 34 72t13 99h50q0 -69 -16.5 -119.5t-42.5 -86.5l122 -114h-74z" />
    <glyph glyph-name="quotesingle" unicode="'" horiz-adv-x="190" 
d="M31 500l51 200h53l-52 -200h-52z" />
    <glyph glyph-name="parenleft" unicode="(" horiz-adv-x="323" 
d="M51 256q0 128 34 241t97 202h63q-69 -85 -106.5 -198.5t-37.5 -244.5q0 -129 38 -241.5t107 -202.5h-62q-64 93 -98.5 205t-34.5 239z" />
    <glyph glyph-name="parenright" unicode=")" horiz-adv-x="309" 
d="M246 256q0 -127 -34.5 -239t-98.5 -205h-62q69 90 107 202.5t38 241.5q0 131 -37.5 244.5t-106.5 198.5h63q63 -89 97 -202t34 -241z" />
    <glyph glyph-name="asterisk" unicode="*" horiz-adv-x="534" 
d="M384 700l-78 -134h155v-48h-155l77 -133l-41 -24l-77 133l-77 -133l-42 24l77 133h-153v48h153l-77 134l41 24l78 -135l78 135z" />
    <glyph glyph-name="plus" unicode="+" horiz-adv-x="549" 
d="M265 216h-216v48h216v216h48v-216h216v-48h-216v-216h-48v216z" />
    <glyph glyph-name="comma" unicode="," horiz-adv-x="248" 
d="M31 -120l51 200h53l-52 -200h-52z" />
    <glyph glyph-name="hyphen" unicode="-" horiz-adv-x="528" 
d="M510 325v-48h-440v48h440z" />
    <glyph glyph-name="period" unicode="." horiz-adv-x="260" 
d="M148 91v-91h-66v91h66z" />
    <glyph glyph-name="slash" unicode="/" horiz-adv-x="833" 
d="M498 705h55l-365 -735h-55z" />
    <glyph glyph-name="zero" unicode="0" horiz-adv-x="696" 
d="M42 350q0 74 24.5 139.5t66.5 114.5t98 77.5t119 28.5q64 0 120.5 -28.5t98.5 -77.5t66.5 -114.5t24.5 -139.5q0 -75 -24.5 -140.5t-66.5 -114t-98.5 -77t-120.5 -28.5q-63 0 -119 28.5t-98 77t-66.5 114t-24.5 140.5zM92 350q0 -64 20.5 -120.5t55.5 -98.5t82 -66.5
t100 -24.5q54 0 101 24.5t82.5 66.5t56 98.5t20.5 120.5t-20.5 120.5t-56 98.5t-82.5 66.5t-101 24.5q-53 0 -100 -24.5t-82 -66.5t-55.5 -98.5t-20.5 -120.5z" />
    <glyph glyph-name="one" unicode="1" horiz-adv-x="378" 
d="M80 504v65l160 131h50v-700h-50v635z" />
    <glyph glyph-name="two" unicode="2" horiz-adv-x="618" 
d="M78 509q0 48 20 85.5t55 63t81 39t99 13.5q61 0 106.5 -16.5t75 -44t44 -63.5t14.5 -74t-18 -67t-48 -53t-68.5 -43.5t-79.5 -38.5q-46 -21 -92 -43.5t-83.5 -52t-61 -69.5t-23.5 -95h471v-50h-521v50q0 68 26 115.5t67.5 82t93.5 59.5t103 49q36 16 69.5 32.5t59 35
t40.5 40t15 48.5q0 28 -11.5 55t-35 47.5t-59 33t-84.5 12.5q-42 0 -79.5 -10t-65 -29t-44 -47.5t-16.5 -64.5h-50z" />
    <glyph glyph-name="three" unicode="3" horiz-adv-x="608" 
d="M76 542q0 35 17.5 65.5t48.5 53.5t72.5 36t88.5 13q48 0 90 -13t73 -36t49 -53.5t18 -65.5q0 -46 -29.5 -83.5t-77.5 -60.5q64 -27 103.5 -78t39.5 -114q0 -45 -21 -84.5t-57 -68.5t-84.5 -46t-103.5 -17t-103 17t-84 46t-56.5 68.5t-20.5 84.5h50q0 -35 17 -65t46 -52.5
t68 -35.5t83 -13q45 0 84.5 13t68.5 35.5t46 52.5t17 65q0 34 -16 63.5t-44 52t-66 35.5t-81 15h-9v50h7q37 1 68.5 10.5t54.5 26t36.5 38t13.5 45.5t-14 45.5t-38 37.5t-57 25.5t-71 9.5q-37 0 -69 -9.5t-56 -25.5t-38 -37.5t-14 -45.5h-50z" />
    <glyph glyph-name="four" unicode="4" horiz-adv-x="640" 
d="M496 700v-495h85v-50h-85v-155h-50v155h-392v50l392 495h50zM446 205v415l-328 -415h328z" />
    <glyph glyph-name="five" unicode="5" horiz-adv-x="620" 
d="M534 649h-303q-11 -36 -18.5 -62t-15 -50.5t-16 -52.5t-19.5 -67q26 15 57.5 22.5t72.5 7.5q50 0 94.5 -17.5t78 -48t53 -71.5t19.5 -88q0 -49 -19.5 -91.5t-53 -73.5t-78 -49t-94.5 -18q-51 0 -93 13t-74 36.5t-53 55.5t-30 71l48 10q14 -60 66 -98t136 -38
q39 0 74.5 14t62.5 38.5t42.5 57.5t15.5 72q0 37 -15.5 69t-42.5 55.5t-62.5 37t-74.5 13.5q-56 0 -95 -20t-69 -57l-40 22l105 357h341v-50z" />
    <glyph glyph-name="six" unicode="6" horiz-adv-x="661" 
d="M562 225q0 -49 -19.5 -92t-53 -74.5t-78.5 -50t-96 -18.5t-96.5 18.5t-79 50t-53 74.5t-19.5 92q0 35 11 68t31 61l242 346h60l-180 -258q40 14 84 14q51 0 96 -18t78.5 -49.5t53 -73.5t19.5 -90zM512 225q0 37 -15.5 70t-42.5 57.5t-63 39t-76 14.5q-41 0 -77 -14.5
t-63 -39t-42.5 -57.5t-15.5 -70q0 -39 15.5 -72.5t42.5 -58.5t63 -39.5t77 -14.5q40 0 76 14.5t63 39.5t42.5 58.5t15.5 72.5z" />
    <glyph glyph-name="seven" unicode="7" horiz-adv-x="638" 
d="M73 700h513v-50l-394 -650h-61l395 650h-453v50z" />
    <glyph glyph-name="eight" unicode="8" horiz-adv-x="631" 
d="M584 206q0 -45 -21 -84.5t-57 -68.5t-83.5 -46t-100.5 -17q-56 0 -104.5 17t-84.5 46t-57 68.5t-21 84.5q0 63 39.5 113.5t104.5 76.5q-48 23 -77.5 60.5t-29.5 83.5q0 35 18 66t49.5 54t73 36.5t89.5 13.5q46 0 87 -13.5t71.5 -36.5t48.5 -54t18 -66q0 -46 -29 -83.5
t-77 -60.5q63 -26 103 -76.5t40 -113.5zM534 206q0 34 -17 64t-46 52.5t-67.5 35t-81.5 12.5q-45 0 -85 -12.5t-69 -35t-46 -52.5t-17 -64q0 -35 17 -65t46 -52.5t69 -35.5t85 -13q43 0 81.5 13t67.5 35.5t46 52.5t17 65zM497 540q0 25 -14 46.5t-38 38t-55.5 26t-67.5 9.5
q-37 0 -70 -9.5t-57.5 -26t-38.5 -38t-14 -46.5t14 -46.5t38.5 -38t57.5 -26t70 -9.5q36 0 67.5 9.5t55.5 26t38 38t14 46.5z" />
    <glyph glyph-name="nine" unicode="9" horiz-adv-x="623" 
d="M67 475q0 49 19.5 92t53 74.5t78.5 50t96 18.5t96.5 -18.5t79 -50t53 -74.5t19.5 -92q0 -35 -11 -68t-31 -61l-242 -346h-60l180 258q-40 -14 -84 -14q-51 0 -96 18t-78.5 49.5t-53 73.5t-19.5 90zM117 475q0 -37 15.5 -70t42.5 -57.5t62.5 -39t76.5 -14.5t77 14.5t63 39
t42.5 57.5t15.5 70q0 39 -15.5 72.5t-42.5 58.5t-63 39.5t-77 14.5t-76.5 -14.5t-62.5 -39.5t-42.5 -58.5t-15.5 -72.5z" />
    <glyph glyph-name="colon" unicode=":" horiz-adv-x="193" 
d="M148 480v-91h-66v91h66zM148 91v-91h-66v91h66z" />
    <glyph glyph-name="semicolon" unicode=";" horiz-adv-x="205" 
d="M148 480v-91h-66v91h66zM31 -120l51 200h53l-52 -200h-52z" />
    <glyph glyph-name="less" unicode="&#x3c;" horiz-adv-x="574" 
d="M476 0l-409 191v48l409 191v-53l-349 -162l349 -162v-53z" />
    <glyph glyph-name="equal" unicode="=" horiz-adv-x="611" 
d="M541 209h-471v48h471v-48zM541 345h-471v48h471v-48z" />
    <glyph glyph-name="greater" unicode="&#x3e;" horiz-adv-x="574" 
d="M67 53l349 162l-349 162v53l409 -191v-48l-409 -191v53z" />
    <glyph glyph-name="question" unicode="?" horiz-adv-x="597" 
d="M105 529q0 34 18 66.5t49 58t73.5 41t91.5 15.5t91 -15.5t73 -41t49 -58t18 -66.5q0 -41 -10.5 -70t-27 -50.5t-37 -38t-41.5 -31.5q-15 -11 -29 -21.5t-25 -23t-17.5 -28t-6.5 -35.5v-81h-50v81q0 30 8.5 52t22 39.5t31.5 31t38 27.5v-1q17 12 34 25t30.5 30.5t21.5 40
t8 53.5q0 24 -14 47.5t-38.5 42t-57.5 30t-71 11.5q-39 0 -72 -11.5t-57.5 -30t-38.5 -42t-14 -47.5h-50zM380 91v-91h-62v91h62z" />
    <glyph glyph-name="at" unicode="@" horiz-adv-x="831" 
d="M799 195q-27 -53 -67 -92t-88.5 -64t-103 -37t-109.5 -12q-80 0 -149.5 27t-121 75.5t-81.5 115t-30 146.5q0 70 28.5 134.5t78 114t115.5 78.5t140 29q81 0 142.5 -22t103 -60.5t63 -91t21.5 -113.5q0 -52 -14 -97t-39.5 -78.5t-60.5 -52.5t-77 -19q-29 0 -45 14t-24 35
q-23 -23 -55 -36t-72 -13q-18 0 -42 7.5t-45.5 25t-36.5 47t-15 73.5q0 56 19.5 95.5t51.5 64.5t72 36.5t81 11.5q27 0 58 -7t63 -20q-13 -80 -20.5 -124.5t-11 -67.5t-4 -30.5t-0.5 -11.5q0 -17 5 -33.5t21 -16.5q30 0 56 16.5t44.5 43.5t29.5 62.5t11 74.5q0 51 -18 94
t-53.5 75t-87.5 50t-121 18q-64 0 -120.5 -25t-99 -67t-67.5 -97.5t-25 -116.5q0 -68 26 -125.5t71 -99.5t105.5 -65.5t129.5 -23.5q45 0 89.5 9t85 28t75 48.5t59.5 69.5h59zM503 479q-15 5 -31 6.5t-33 1.5q-32 0 -63 -8.5t-56 -27.5t-40 -49t-15 -73q0 -30 9.5 -50
t23.5 -31.5t29.5 -16.5t26.5 -5q50 0 82 26t42 70q0 2 1 6.5t3.5 19.5t7 45.5t13.5 85.5z" />
    <glyph glyph-name="A" unicode="A" horiz-adv-x="734" 
d="M624 0v210h-513v-210h-51v402q0 64 24.5 120.5t66.5 98t98.5 65.5t120.5 24q62 0 117 -24t96.5 -65.5t66 -98t24.5 -120.5v-402h-50zM624 402q-3 55 -23.5 102t-54.5 81t-79 53.5t-97 20.5q-56 -1 -103 -21.5t-81.5 -55t-54 -81t-20.5 -99.5v-141h513v141z" />
    <glyph glyph-name="B" unicode="B" horiz-adv-x="744" 
d="M684 196q0 -41 -15.5 -76.5t-42 -62t-62 -42t-76.5 -15.5h-408v700h408q37 0 70 -14t57.5 -38t39 -57t14.5 -71q0 -47 -23 -88.5t-65 -65.5q48 -25 75.5 -70.5t27.5 -99.5zM488 50q29 0 55.5 11.5t46.5 31t32 46t12 57.5q0 29 -11.5 55t-31.5 46t-46.5 31.5t-56.5 11.5
h-358v-290h358zM130 390h358q27 0 50.5 10.5t41.5 28.5t28.5 41.5t10.5 49.5t-10 49.5t-27.5 41.5t-41.5 28.5t-52 10.5h-358v-260z" />
    <glyph glyph-name="C" unicode="C" horiz-adv-x="807" 
d="M702 455q-22 65 -73 114q-42 45 -98 67t-122 22q-64 0 -120 -22t-100 -67q-43 -42 -65 -98t-22 -122q0 -64 22 -120t65 -100q44 -43 100 -65.5t120 -22.5q66 0 122 22.5t98 65.5q51 51 74 116h54q-17 -56 -49.5 -103t-78 -80.5t-101.5 -52.5t-119 -19q-75 0 -140.5 28
t-114 76.5t-76.5 114t-28 140.5q0 76 28 141.5t76.5 114.5t114 77t140.5 28q63 0 119 -19t101.5 -52.5t78 -80.5t49.5 -103h-55z" />
    <glyph glyph-name="D" unicode="D" horiz-adv-x="777" 
d="M80 700h312q68 0 127 -28.5t103 -76.5t69.5 -111t25.5 -131q0 -69 -25.5 -133t-69.5 -113t-103.5 -78t-126.5 -29h-312v700zM368 50q62 0 116.5 24t95.5 65t64.5 96t23.5 118q0 61 -23.5 115.5t-64.5 94.5t-95.5 63.5t-116.5 23.5h-238v-600h238z" />
    <glyph glyph-name="E" unicode="E" horiz-adv-x="621" 
d="M80 700h501v-50h-451v-260h300v-50h-300v-290h451v-50h-501v700z" />
    <glyph glyph-name="F" unicode="F" horiz-adv-x="621" 
d="M80 700h501v-50h-451v-260h250v-50h-250v-340h-50v700z" />
    <glyph glyph-name="G" unicode="G" 
d="M750 224q-19 -52 -52 -95t-77.5 -74t-98 -48t-113.5 -17q-75 0 -140.5 28t-114 76.5t-76.5 114t-28 140.5q0 76 28 141.5t76.5 114.5t114 77t140.5 28q63 0 119 -19t101.5 -52.5t78 -80.5t49.5 -103h-55q-15 43 -43.5 80.5t-67 64.5t-85 42.5t-97.5 15.5
q-61 0 -116.5 -23t-98 -64t-67.5 -98t-25 -124q0 -63 23 -119t64.5 -98t97.5 -66.5t122 -24.5q48 0 93.5 14t84.5 40.5t69 64.5t47 85q3 9 6 18.5t5 19.5l-195 -1v48h253q0 -7 -0.5 -13.5t-1.5 -12.5q-2 -15 -6 -32.5t-14 -47.5z" />
    <glyph glyph-name="H" unicode="H" horiz-adv-x="773" 
d="M623 700h50v-700h-50v339h-493v-339h-50v700h50v-311h493v311z" />
    <glyph glyph-name="I" unicode="I" horiz-adv-x="230" 
d="M90 700h50v-700h-50v700z" />
    <glyph glyph-name="J" unicode="J" horiz-adv-x="532" 
d="M452 700v-479q0 -52 -12 -87.5t-30 -60.5q-18 -24 -40.5 -38.5t-45 -22t-42.5 -10t-33 -2.5h-199v50h180h19q11 0 26 2.5t31.5 8.5t33 17t30.5 29q14 19 23 46.5t9 67.5v479h50z" />
    <glyph glyph-name="K" unicode="K" horiz-adv-x="763" 
d="M651 0l-414 405l-107 -81v-324h-50v700h50v-312l415 312h76l-343 -266l445 -434h-72v0z" />
    <glyph glyph-name="L" unicode="L" horiz-adv-x="581" 
d="M80 700h50v-650h401v-50h-451v700z" />
    <glyph glyph-name="M" unicode="M" horiz-adv-x="929" 
d="M799 0v621l-304 -519h-62l-303 519v-621h-50v700h72l312 -537l313 537h72v-700h-50z" />
    <glyph glyph-name="N" unicode="N" horiz-adv-x="772" 
d="M80 0v700h52l509 -622v622h51v-700h-53l-509 623v-623h-50z" />
    <glyph glyph-name="O" unicode="O" 
d="M50 349q0 76 28 141.5t76.5 114.5t114 77t140.5 28q77 0 143.5 -28t115 -77t76.5 -114.5t28 -141.5q0 -75 -28 -140.5t-76.5 -114t-115 -76.5t-143.5 -28q-75 0 -140.5 28t-114 76.5t-76.5 114t-28 140.5zM189 569q-43 -42 -65 -98t-22 -122q0 -64 22 -120t65 -100
q44 -43 100 -65.5t120 -22.5q66 0 122 22.5t98 65.5q45 44 68 100t23 120q0 66 -23 122t-68 98q-42 45 -98 67t-122 22q-64 0 -120 -22t-100 -67z" />
    <glyph glyph-name="P" unicode="P" horiz-adv-x="727" 
d="M80 0v700h336q52 0 97.5 -20t79.5 -54t54 -79.5t20 -97.5q0 -53 -20 -99t-54 -79.5t-79.5 -53t-97.5 -19.5h-286v-198h-50zM416 248q42 2 78.5 18t64 43t43 62.5t15.5 77.5q-2 41 -18.5 77.5t-43.5 64t-63 43.5t-76 16h-286v-402h286z" />
    <glyph glyph-name="Q" unicode="Q" 
d="M50 349q0 76 28 141.5t76.5 114.5t114 77t140.5 28q77 0 143.5 -28t115 -77t76.5 -114.5t28 -141.5q0 -62 -19.5 -118t-54.5 -101.5t-83.5 -78t-106.5 -48.5q29 -10 58 -18t60 -8q21 1 38 10t41 33l37 -36q-26 -26 -53.5 -41t-62.5 -15q-43 0 -78 9.5t-67 21.5t-63 21.5
t-66 9.5q-32 -1 -55 -18t-50 -44l-36 34q30 30 66 52q-50 19 -92 52.5t-72 77t-46.5 95.5t-16.5 110zM189 569q-43 -42 -65 -98t-22 -122q0 -64 22 -120t65 -100q44 -43 100 -65.5t120 -22.5q66 0 122 22.5t98 65.5q45 44 68 100t23 120q0 66 -23 122t-68 98q-42 45 -98 67
t-122 22q-64 0 -120 -22t-100 -67z" />
    <glyph glyph-name="R" unicode="R" horiz-adv-x="737" 
d="M426 248q42 2 78.5 18t64 43t43 62.5t15.5 77.5q-2 41 -18.5 77.5t-43.5 64t-63 43.5t-76 16h-296v-650h-50v700h346q52 0 97.5 -20t79.5 -54t54 -79.5t20 -97.5q0 -48 -16 -90t-44.5 -74.5t-67 -54.5t-83.5 -29l201 -201h-70l-248 248h77z" />
    <glyph glyph-name="S" unicode="S" horiz-adv-x="642" 
d="M92 191q0 -42 24 -70.5t59 -46t76 -25t76 -7.5q34 0 73.5 8.5t72.5 26.5t55 46t22 68q0 50 -25.5 81t-64.5 50t-84 28.5t-84 16.5q-37 6 -77 17.5t-73 31t-54 50t-21 74.5q0 42 21.5 74t56 53t79 32t89.5 11q54 0 99.5 -13t78.5 -35.5t51.5 -53.5t18.5 -68h-52
q0 26 -16 48t-43 37.5t-62.5 24t-74.5 8.5q-29 0 -63 -6t-63 -20t-48.5 -36.5t-19.5 -55.5q0 -32 18.5 -53.5t46 -35.5t59 -22.5t57.5 -12.5q52 -9 106 -22t97.5 -37.5t71 -64t27.5 -101.5q0 -51 -26 -88.5t-66 -62.5t-88.5 -37.5t-94.5 -12.5q-48 0 -99 11.5t-93 35.5
t-68.5 62t-26.5 92h52z" />
    <glyph glyph-name="T" unicode="T" horiz-adv-x="630" 
d="M40 700h550v-50h-250v-650h-50v650h-250v50z" />
    <glyph glyph-name="U" unicode="U" horiz-adv-x="694" 
d="M594 700h50v-416q0 -59 -23.5 -112.5t-63.5 -94t-93.5 -64t-114.5 -23.5q-59 0 -112.5 23.5t-93.5 64t-63.5 94t-23.5 112.5v416h50v-416q2 -51 21.5 -95.5t52 -78t76 -53t93.5 -19.5q51 2 96 22t78 53t52 77t19 94v416z" />
    <glyph glyph-name="V" unicode="V" horiz-adv-x="750" 
d="M658 700h52l-310 -700h-50l-310 700h52l283 -635z" />
    <glyph glyph-name="W" unicode="W" horiz-adv-x="1128" 
d="M1036 700h52l-250 -700h-50l-224 627l-224 -627h-50l-250 700h52l223 -635l223 635h52l223 -635z" />
    <glyph glyph-name="X" unicode="X" horiz-adv-x="756" 
d="M410 364l306 -364h-65l-273 326l-273 -326h-65l305 364l-281 336h65l249 -297l249 297h65z" />
    <glyph glyph-name="Y" unicode="Y" horiz-adv-x="673" 
d="M337 349l236 351h60l-271 -401v-299h-50v299l-272 401h60z" />
    <glyph glyph-name="Z" unicode="Z" horiz-adv-x="680" 
d="M40 50l532 600h-532v50h600v-50l-532 -600h532v-50h-600v50z" />
    <glyph glyph-name="bracketleft" unicode="[" horiz-adv-x="318" 
d="M102 700h170v-50h-120v-788h120v-50h-170v888z" />
    <glyph glyph-name="backslash" unicode="\" horiz-adv-x="623" 
d="M533 -40h-55l-375 745h55z" />
    <glyph glyph-name="bracketright" unicode="]" horiz-adv-x="339" 
d="M251 -188h-170v50h120v788h-120v50h170v-888z" />
    <glyph glyph-name="asciicircum" unicode="^" horiz-adv-x="630" 
d="M360 900l150 -150h-70l-115 115l-115 -115h-70l150 150h70z" />
    <glyph glyph-name="underscore" unicode="_" horiz-adv-x="500" 
d="M580 -164v-48h-530v48h530z" />
    <glyph glyph-name="grave" unicode="`" horiz-adv-x="292" 
d="M130 750l-150 150h70l150 -150h-70z" />
    <glyph glyph-name="a" unicode="a" horiz-adv-x="714" 
d="M614 0v210h-513v-210h-51v402q0 64 24.5 120.5t66.5 98t98.5 65.5t120.5 24q62 0 117 -24t96.5 -65.5t66 -98t24.5 -120.5v-402h-50zM614 402q-3 55 -23.5 102t-54.5 81t-79 53.5t-97 20.5q-56 -1 -103 -21.5t-81.5 -55t-54 -81t-20.5 -99.5v-141h513v141z" />
    <glyph glyph-name="b" unicode="b" horiz-adv-x="744" 
d="M684 196q0 -41 -15.5 -76.5t-42 -62t-62 -42t-76.5 -15.5h-408v700h408q37 0 70 -14t57.5 -38t39 -57t14.5 -71q0 -47 -23 -88.5t-65 -65.5q48 -25 75.5 -70.5t27.5 -99.5zM488 50q29 0 55.5 11.5t46.5 31t32 46t12 57.5q0 29 -11.5 55t-31.5 46t-46.5 31.5t-56.5 11.5
h-358v-290h358zM130 390h358q27 0 50.5 10.5t41.5 28.5t28.5 41.5t10.5 49.5t-10 49.5t-27.5 41.5t-41.5 28.5t-52 10.5h-358v-260z" />
    <glyph glyph-name="c" unicode="c" horiz-adv-x="807" 
d="M702 455q-22 65 -73 114q-42 45 -98 67t-122 22q-64 0 -120 -22t-100 -67q-43 -42 -65 -98t-22 -122q0 -64 22 -120t65 -100q44 -43 100 -65.5t120 -22.5q66 0 122 22.5t98 65.5q51 51 74 116h54q-17 -56 -49.5 -103t-78 -80.5t-101.5 -52.5t-119 -19q-75 0 -140.5 28
t-114 76.5t-76.5 114t-28 140.5q0 76 28 141.5t76.5 114.5t114 77t140.5 28q63 0 119 -19t101.5 -52.5t78 -80.5t49.5 -103h-55z" />
    <glyph glyph-name="d" unicode="d" horiz-adv-x="777" 
d="M80 700h312q68 0 127 -28.5t103 -76.5t69.5 -111t25.5 -131q0 -69 -25.5 -133t-69.5 -113t-103.5 -78t-126.5 -29h-312v700zM368 50q62 0 116.5 24t95.5 65t64.5 96t23.5 118q0 61 -23.5 115.5t-64.5 94.5t-95.5 63.5t-116.5 23.5h-238v-600h238z" />
    <glyph glyph-name="e" unicode="e" horiz-adv-x="621" 
d="M80 700h501v-50h-451v-260h300v-50h-300v-290h451v-50h-501v700z" />
    <glyph glyph-name="f" unicode="f" horiz-adv-x="621" 
d="M80 700h501v-50h-451v-260h250v-50h-250v-340h-50v700z" />
    <glyph glyph-name="g" unicode="g" 
d="M750 224q-19 -52 -52 -95t-77.5 -74t-98 -48t-113.5 -17q-75 0 -140.5 28t-114 76.5t-76.5 114t-28 140.5q0 76 28 141.5t76.5 114.5t114 77t140.5 28q63 0 119 -19t101.5 -52.5t78 -80.5t49.5 -103h-55q-15 43 -43.5 80.5t-67 64.5t-85 42.5t-97.5 15.5
q-61 0 -116.5 -23t-98 -64t-67.5 -98t-25 -124q0 -63 23 -119t64.5 -98t97.5 -66.5t122 -24.5q48 0 93.5 14t84.5 40.5t69 64.5t47 85q3 9 6 18.5t5 19.5l-195 -1v48h253q0 -7 -0.5 -13.5t-1.5 -12.5q-2 -15 -6 -32.5t-14 -47.5z" />
    <glyph glyph-name="h" unicode="h" horiz-adv-x="773" 
d="M623 700h50v-700h-50v339h-493v-339h-50v700h50v-311h493v311z" />
    <glyph glyph-name="i" unicode="i" horiz-adv-x="230" 
d="M90 700h50v-700h-50v700z" />
    <glyph glyph-name="j" unicode="j" horiz-adv-x="532" 
d="M452 700v-479q0 -52 -12 -87.5t-30 -60.5q-18 -24 -40.5 -38.5t-45 -22t-42.5 -10t-33 -2.5h-199v50h180h19q11 0 26 2.5t31.5 8.5t33 17t30.5 29q14 19 23 46.5t9 67.5v479h50z" />
    <glyph glyph-name="k" unicode="k" horiz-adv-x="763" 
d="M651 0l-414 405l-107 -81v-324h-50v700h50v-312l415 312h76l-343 -266l445 -434h-72v0z" />
    <glyph glyph-name="l" unicode="l" horiz-adv-x="581" 
d="M80 700h50v-650h401v-50h-451v700z" />
    <glyph glyph-name="m" unicode="m" horiz-adv-x="929" 
d="M799 0v621l-304 -519h-62l-303 519v-621h-50v700h72l312 -537l313 537h72v-700h-50z" />
    <glyph glyph-name="n" unicode="n" horiz-adv-x="772" 
d="M80 0v700h52l509 -622v622h51v-700h-53l-509 623v-623h-50z" />
    <glyph glyph-name="o" unicode="o" 
d="M50 349q0 76 28 141.5t76.5 114.5t114 77t140.5 28q77 0 143.5 -28t115 -77t76.5 -114.5t28 -141.5q0 -75 -28 -140.5t-76.5 -114t-115 -76.5t-143.5 -28q-75 0 -140.5 28t-114 76.5t-76.5 114t-28 140.5zM189 569q-43 -42 -65 -98t-22 -122q0 -64 22 -120t65 -100
q44 -43 100 -65.5t120 -22.5q66 0 122 22.5t98 65.5q45 44 68 100t23 120q0 66 -23 122t-68 98q-42 45 -98 67t-122 22q-64 0 -120 -22t-100 -67z" />
    <glyph glyph-name="p" unicode="p" horiz-adv-x="727" 
d="M80 0v700h336q52 0 97.5 -20t79.5 -54t54 -79.5t20 -97.5q0 -53 -20 -99t-54 -79.5t-79.5 -53t-97.5 -19.5h-286v-198h-50zM416 248q42 2 78.5 18t64 43t43 62.5t15.5 77.5q-2 41 -18.5 77.5t-43.5 64t-63 43.5t-76 16h-286v-402h286z" />
    <glyph glyph-name="q" unicode="q" 
d="M50 349q0 76 28 141.5t76.5 114.5t114 77t140.5 28q77 0 143.5 -28t115 -77t76.5 -114.5t28 -141.5q0 -62 -19.5 -118t-54.5 -101.5t-83.5 -78t-106.5 -48.5q29 -10 58 -18t60 -8q21 1 38 10t41 33l37 -36q-26 -26 -53.5 -41t-62.5 -15q-43 0 -78 9.5t-67 21.5t-63 21.5
t-66 9.5q-32 -1 -55 -18t-50 -44l-36 34q30 30 66 52q-50 19 -92 52.5t-72 77t-46.5 95.5t-16.5 110zM189 569q-43 -42 -65 -98t-22 -122q0 -64 22 -120t65 -100q44 -43 100 -65.5t120 -22.5q66 0 122 22.5t98 65.5q45 44 68 100t23 120q0 66 -23 122t-68 98q-42 45 -98 67
t-122 22q-64 0 -120 -22t-100 -67z" />
    <glyph glyph-name="r" unicode="r" horiz-adv-x="727" 
d="M416 248q42 2 78.5 18t64 43t43 62.5t15.5 77.5q-2 41 -18.5 77.5t-43.5 64t-63 43.5t-76 16h-296v-650h-50v700h346q52 0 97.5 -20t79.5 -54t54 -79.5t20 -97.5q0 -48 -16 -90t-44.5 -74.5t-67 -54.5t-83.5 -29l201 -201h-70l-248 248h77z" />
    <glyph glyph-name="s" unicode="s" horiz-adv-x="642" 
d="M92 191q0 -42 24 -70.5t59 -46t76 -25t76 -7.5q34 0 73.5 8.5t72.5 26.5t55 46t22 68q0 50 -25.5 81t-64.5 50t-84 28.5t-84 16.5q-37 6 -77 17.5t-73 31t-54 50t-21 74.5q0 42 21.5 74t56 53t79 32t89.5 11q54 0 99.5 -13t78.5 -35.5t51.5 -53.5t18.5 -68h-52
q0 26 -16 48t-43 37.5t-62.5 24t-74.5 8.5q-29 0 -63 -6t-63 -20t-48.5 -36.5t-19.5 -55.5q0 -32 18.5 -53.5t46 -35.5t59 -22.5t57.5 -12.5q52 -9 106 -22t97.5 -37.5t71 -64t27.5 -101.5q0 -51 -26 -88.5t-66 -62.5t-88.5 -37.5t-94.5 -12.5q-48 0 -99 11.5t-93 35.5
t-68.5 62t-26.5 92h52z" />
    <glyph glyph-name="t" unicode="t" horiz-adv-x="630" 
d="M40 700h550v-50h-250v-650h-50v650h-250v50z" />
    <glyph glyph-name="u" unicode="u" horiz-adv-x="688" 
d="M588 700h50v-416q0 -59 -23.5 -112.5t-63.5 -94t-93.5 -64t-114.5 -23.5q-59 0 -112.5 23.5t-93.5 64t-63.5 94t-23.5 112.5v416h50v-416q2 -51 21.5 -95.5t52 -78t76 -53t93.5 -19.5q51 2 96 22t78 53t52 77t19 94v416z" />
    <glyph glyph-name="v" unicode="v" horiz-adv-x="750" 
d="M658 700h52l-310 -700h-50l-310 700h52l283 -635z" />
    <glyph glyph-name="w" unicode="w" horiz-adv-x="1128" 
d="M1036 700h52l-250 -700h-50l-224 627l-224 -627h-50l-250 700h52l223 -635l223 635h52l223 -635z" />
    <glyph glyph-name="x" unicode="x" horiz-adv-x="756" 
d="M410 364l306 -364h-65l-273 326l-273 -326h-65l305 364l-281 336h65l249 -297l249 297h65z" />
    <glyph glyph-name="y" unicode="y" horiz-adv-x="673" 
d="M337 349l236 351h60l-271 -401v-299h-50v299l-272 401h60z" />
    <glyph glyph-name="z" unicode="z" horiz-adv-x="680" 
d="M40 50l532 600h-532v50h600v-50l-532 -600h532v-50h-600v50z" />
    <glyph glyph-name="braceleft" unicode="{" horiz-adv-x="401" 
d="M271 -188h-96q-29 0 -52 20.5t-23 53.5v284q0 3 -0.5 13t-6 20.5t-17.5 19t-36 8.5v50h4q22 1 33.5 9.5t16.5 19t5.5 20t0.5 12.5v284q0 33 23 53.5t52 20.5h96v-50h-96q-10 0 -17.5 -6.5t-7.5 -17.5v-284v-13.5t-3 -22t-9.5 -26t-18.5 -24.5q12 -11 18.5 -24.5t9.5 -26
t3 -22.5v-13v-284q0 -11 7.5 -17.5t17.5 -6.5h96v-50z" />
    <glyph glyph-name="bar" unicode="|" horiz-adv-x="259" 
d="M90 700h50v-888h-50v888z" />
    <glyph glyph-name="braceright" unicode="}" horiz-adv-x="424" 
d="M40 -138h96q10 0 17.5 6.5t7.5 17.5v284v13t3 22.5t9.5 26t18.5 24.5q-12 11 -18.5 24.5t-9.5 26t-3 22v13.5v284q0 11 -7.5 17.5t-17.5 6.5h-96v50h96q29 0 52 -20.5t23 -53.5v-284q0 -3 0.5 -12.5t5.5 -20t16.5 -19t33.5 -9.5h4v-50q-24 0 -36 -8.5t-17.5 -19t-6 -20.5
t-0.5 -13v-284q0 -33 -23 -53.5t-52 -20.5h-96v50z" />
    <glyph glyph-name="asciitilde" unicode="~" horiz-adv-x="500" 
 />
    <glyph glyph-name="exclamdown" unicode="&#xa1;" horiz-adv-x="268" 
d="M124 -161v550h50v-550h-50zM118 448v91h62v-91h-62z" />
    <glyph glyph-name="brokenbar" unicode="&#xa6;" horiz-adv-x="395" 
d="M233 626v-335h-50v335h50zM233 170v-335h-50v335h50z" />
    <glyph glyph-name="copyright" unicode="&#xa9;" horiz-adv-x="833" 
d="M93 350q0 66 24.5 124t67.5 101t100.5 67.5t123.5 24.5q67 0 125.5 -24.5t101.5 -67.5t67.5 -101t24.5 -124t-24.5 -123.5t-67.5 -100.5t-101.5 -67.5t-125.5 -24.5q-66 0 -123.5 24.5t-100.5 67.5t-67.5 100.5t-24.5 123.5zM211 548q-40 -38 -59.5 -88.5t-19.5 -109.5
q0 -58 19.5 -108.5t59.5 -89.5q39 -40 89.5 -60t108.5 -20q59 0 109.5 20t88.5 60q41 39 61.5 89.5t20.5 108.5q0 59 -20.5 109.5t-61.5 88.5q-38 41 -88.5 60.5t-109.5 19.5q-58 0 -108.5 -19.5t-89.5 -60.5zM557 403q-5 18 -14.5 32.5t-20.5 26.5q-44 44 -112 44
q-67 0 -111 -44q-43 -43 -43 -112q0 -66 43 -111q44 -44 111 -44q33 0 62 11.5t50 32.5q11 12 20 27t16 33h32q-9 -29 -26 -53.5t-40 -42.5t-52 -28t-62 -10q-39 0 -72.5 14.5t-58.5 39.5t-39.5 59t-14.5 72q0 39 14.5 73t39.5 59.5t58.5 40t72.5 14.5q33 0 62 -10.5
t53 -28.5t41.5 -42.5t25.5 -52.5h-35z" />
    <glyph glyph-name="registered" unicode="&#xae;" horiz-adv-x="833" 
d="M93 350q0 66 24.5 124t67.5 101t100.5 67.5t123.5 24.5q67 0 125.5 -24.5t101.5 -67.5t67.5 -101t24.5 -124t-24.5 -123.5t-67.5 -100.5t-101.5 -67.5t-125.5 -24.5q-66 0 -123.5 24.5t-100.5 67.5t-67.5 100.5t-24.5 123.5zM211 548q-40 -38 -59.5 -88.5t-19.5 -109.5
q0 -58 19.5 -108.5t59.5 -89.5q39 -40 89.5 -60t108.5 -20q59 0 109.5 20t88.5 60q41 39 61.5 89.5t20.5 108.5q0 59 -20.5 109.5t-61.5 88.5q-38 41 -88.5 60.5t-109.5 19.5q-58 0 -108.5 -19.5t-89.5 -60.5zM447 304q39 2 66.5 28.5t27.5 65.5q-1 19 -8.5 36.5t-20.5 30.5
t-29.5 20.5t-35.5 7.5h-142v-321h-34v355h176q26 0 49 -10t40.5 -27.5t28 -41t10.5 -50.5q0 -47 -27 -81.5t-72 -43.5l100 -101h-46l-134 132h51z" />
    <glyph glyph-name="degree" unicode="&#xb0;" horiz-adv-x="421" 
d="M30 539q0 34 13 64.5t35 53t52 35.5t65 13q34 0 64.5 -13t53 -35.5t35.5 -53t13 -64.5q0 -35 -13 -65t-35.5 -52t-53 -35t-64.5 -13q-35 0 -65 13t-52 35t-35 52t-13 65zM70 539q0 -26 9.5 -49t26.5 -40t40 -26.5t49 -9.5t49 9.5t40 26.5t27 40t10 49t-10 49t-27 40
t-40 27t-49 10t-49 -10t-40 -27t-26.5 -40t-9.5 -49z" />
    <glyph glyph-name="plusminus" unicode="&#xb1;" horiz-adv-x="550" 
d="M289 489v-172h192v-48h-192v-171h-48v171h-191v48h191v172h48zM481 48v-48h-431v48h431z" />
    <glyph glyph-name="acute" unicode="&#xb4;" horiz-adv-x="500" 
d="M436 900l-150 -150h-70l150 150h70z" />
    <glyph glyph-name="questiondown" unicode="&#xbf;" horiz-adv-x="569" 
d="M518 10q0 -34 -18 -66.5t-49 -58t-73.5 -41t-91.5 -15.5t-91 15.5t-73 41t-49 58t-18 66.5q0 40 10 69.5t26.5 51t37.5 38t42 31.5q15 10 29 21t25 23.5t17.5 28t6.5 35.5v81h50v-81q0 -30 -8.5 -52t-22 -39.5t-32 -31.5t-37.5 -27v1q-17 -12 -34 -25t-30.5 -30.5
t-21.5 -40t-8 -53.5q0 -24 14 -47.5t38.5 -42t57.5 -30t71 -11.5q39 0 72 11.5t57.5 30t38.5 42t14 47.5h50zM243 448v91h62v-91h-62z" />
    <glyph glyph-name="Agrave" unicode="&#xc0;" horiz-adv-x="714" 
d="M364 750l-150 150h70l150 -150h-70zM614 0v210h-513v-210h-51v402q0 64 24.5 120.5t66.5 98t98.5 65.5t120.5 24q62 0 117 -24t96.5 -65.5t66 -98t24.5 -120.5v-402h-50zM614 402q-3 55 -23.5 102t-54.5 81t-79 53.5t-97 20.5q-56 -1 -103 -21.5t-81.5 -55t-54 -81
t-20.5 -99.5v-141h513v141z" />
    <glyph glyph-name="Aacute" unicode="&#xc1;" horiz-adv-x="714" 
d="M502 900l-150 -150h-70l150 150h70zM614 0v210h-513v-210h-51v402q0 64 24.5 120.5t66.5 98t98.5 65.5t120.5 24q62 0 117 -24t96.5 -65.5t66 -98t24.5 -120.5v-402h-50zM614 402q-3 55 -23.5 102t-54.5 81t-79 53.5t-97 20.5q-56 -1 -103 -21.5t-81.5 -55t-54 -81
t-20.5 -99.5v-141h513v141z" />
    <glyph glyph-name="Acircumflex" unicode="&#xc2;" horiz-adv-x="734" 
d="M404 900l150 -150h-70l-115 115l-115 -115h-70l150 150h70zM624 0v210h-513v-210h-51v402q0 64 24.5 120.5t66.5 98t98.5 65.5t120.5 24q62 0 117 -24t96.5 -65.5t66 -98t24.5 -120.5v-402h-50zM624 402q-3 55 -23.5 102t-54.5 81t-79 53.5t-97 20.5q-56 -1 -103 -21.5
t-81.5 -55t-54 -81t-20.5 -99.5v-141h513v141z" />
    <glyph glyph-name="Atilde" unicode="&#xc3;" horiz-adv-x="754" 
d="M307 858q23 0 41 -5t33.5 -11t31.5 -11t34 -5q12 1 26 5t28 17l25 -42q-14 -15 -35 -23t-41 -8q-23 0 -40 5t-32.5 11t-31 11t-34.5 5q-11 0 -25.5 -4.5t-28.5 -17.5l-25 42q14 15 34.5 23t39.5 8zM634 0v210h-513v-210h-51v402q0 64 24.5 120.5t66.5 98t98.5 65.5
t120.5 24q62 0 117 -24t96.5 -65.5t66 -98t24.5 -120.5v-402h-50zM634 402q-3 55 -23.5 102t-54.5 81t-79 53.5t-97 20.5q-56 -1 -103 -21.5t-81.5 -55t-54 -81t-20.5 -99.5v-141h513v141z" />
    <glyph glyph-name="Adieresis" unicode="&#xc4;" horiz-adv-x="734" 
d="M276 850v-91h-66v91h66zM524 850v-91h-66v91h66zM624 0v210h-513v-210h-51v402q0 64 24.5 120.5t66.5 98t98.5 65.5t120.5 24q62 0 117 -24t96.5 -65.5t66 -98t24.5 -120.5v-402h-50zM624 402q-3 55 -23.5 102t-54.5 81t-79 53.5t-97 20.5q-56 -1 -103 -21.5t-81.5 -55
t-54 -81t-20.5 -99.5v-141h513v141z" />
    <glyph glyph-name="aring" unicode="&#xc5;" horiz-adv-x="734" 
d="M371 763q24 0 40.5 17t16.5 41q0 23 -16.5 40t-40.5 17t-41 -17t-17 -40q0 -24 17 -41t41 -17zM371 730q-19 0 -35.5 7.5t-29 20t-19.5 29t-7 34.5t7 34.5t19.5 29t29 20t35.5 7.5t35.5 -7.5t29 -20t19.5 -29t7 -34.5t-7 -34.5t-19.5 -29t-29 -20t-35.5 -7.5zM624 0v210
h-513v-210h-51v402q0 64 24.5 120.5t66.5 98t98.5 65.5t120.5 24q62 0 117 -24t96.5 -65.5t66 -98t24.5 -120.5v-402h-50zM624 402q-3 55 -23.5 102t-54.5 81t-79 53.5t-97 20.5q-56 -1 -103 -21.5t-81.5 -55t-54 -81t-20.5 -99.5v-141h513v141z" />
    <glyph glyph-name="Ccedilla" unicode="&#xc7;" horiz-adv-x="807" 
d="M702 455q-22 65 -73 114q-42 45 -98 67t-122 22q-64 0 -120 -22t-100 -67q-43 -42 -65 -98t-22 -122q0 -64 22 -120t65 -100q44 -43 100 -65.5t120 -22.5q66 0 122 22.5t98 65.5q51 51 74 116h54q-15 -49 -42 -91.5t-64 -75t-83.5 -54t-98.5 -29.5l-21 -29q22 0 41 -6.5
t33 -18.5t22 -27.5t8 -33.5q0 -19 -9 -35t-25 -28t-36.5 -18.5t-44.5 -6.5q-45 0 -74 19t-37 47l48 12q5 -14 21 -22t42 -8q12 0 23.5 3t21 8.5t15.5 13t6 15.5q0 17 -17 27.5t-39 10.5q-32 0 -51 -22l-34 29l47 65q-75 0 -140.5 28t-114 76.5t-76.5 114t-28 140.5
q0 76 28 141.5t76.5 114.5t114 77t140.5 28q63 0 119 -19t101.5 -52.5t78 -80.5t49.5 -103h-55z" />
    <glyph glyph-name="Egrave" unicode="&#xc8;" horiz-adv-x="591" 
d="M226 900l150 -150h-70l-150 150h70zM50 700h501v-50h-451v-260h300v-50h-300v-290h451v-50h-501v700z" />
    <glyph glyph-name="Eacute" unicode="&#xc9;" horiz-adv-x="591" 
d="M436 900l-150 -150h-70l150 150h70zM50 700h501v-50h-451v-260h300v-50h-300v-290h451v-50h-501v700z" />
    <glyph glyph-name="Ecircumflex" unicode="&#xca;" horiz-adv-x="621" 
d="M360 900l150 -150h-70l-115 115l-115 -115h-70l150 150h70zM80 700h501v-50h-451v-260h300v-50h-300v-290h451v-50h-501v700z" />
    <glyph glyph-name="Edieresis" unicode="&#xcb;" horiz-adv-x="621" 
d="M239 850v-91h-66v91h66zM487 850v-91h-66v91h66zM80 700h501v-50h-451v-260h300v-50h-300v-290h451v-50h-501v700z" />
    <glyph glyph-name="Igrave" unicode="&#xcc;" horiz-adv-x="250" 
d="M130 750l-150 150h70l150 -150h-70zM100 700h50v-700h-50v700z" />
    <glyph glyph-name="Iacute" unicode="&#xcd;" horiz-adv-x="250" 
d="M270 900l-150 -150h-70l150 150h70zM100 700h50v-700h-50v700z" />
    <glyph glyph-name="Icircumflex" unicode="&#xce;" horiz-adv-x="230" 
d="M150 900l150 -150h-70l-115 115l-115 -115h-70l150 150h70zM90 700h50v-700h-50v700z" />
    <glyph glyph-name="Idieresis" unicode="&#xcf;" horiz-adv-x="230" 
d="M24 850v-91h-66v91h66zM272 850v-91h-66v91h66zM90 700h50v-700h-50v700z" />
    <glyph glyph-name="Ntilde" unicode="&#xd1;" horiz-adv-x="772" 
d="M337 858q23 0 41 -5t33.5 -11t31.5 -11t34 -5q12 1 26 5t28 17l25 -42q-14 -15 -35 -23t-41 -8q-23 0 -40 5t-32.5 11t-31 11t-34.5 5q-11 0 -25.5 -4.5t-28.5 -17.5l-25 42q14 15 34.5 23t39.5 8zM80 0v700h52l509 -622v622h51v-700h-53l-509 623v-623h-50z" />
    <glyph glyph-name="Ograve" unicode="&#xd2;" horiz-adv-x="802" 
d="M414 750l-150 150h70l150 -150h-70zM40 349q0 76 28 141.5t76.5 114.5t114 77t140.5 28q77 0 143.5 -28t115 -77t76.5 -114.5t28 -141.5q0 -75 -28 -140.5t-76.5 -114t-115 -76.5t-143.5 -28q-75 0 -140.5 28t-114 76.5t-76.5 114t-28 140.5zM179 569q-43 -42 -65 -98
t-22 -122q0 -64 22 -120t65 -100q44 -43 100 -65.5t120 -22.5q66 0 122 22.5t98 65.5q45 44 68 100t23 120q0 66 -23 122t-68 98q-42 45 -98 67t-122 22q-64 0 -120 -22t-100 -67z" />
    <glyph glyph-name="Oacute" unicode="&#xd3;" horiz-adv-x="802" 
d="M535 900l-150 -150h-70l150 150h70zM40 349q0 76 28 141.5t76.5 114.5t114 77t140.5 28q77 0 143.5 -28t115 -77t76.5 -114.5t28 -141.5q0 -75 -28 -140.5t-76.5 -114t-115 -76.5t-143.5 -28q-75 0 -140.5 28t-114 76.5t-76.5 114t-28 140.5zM179 569q-43 -42 -65 -98
t-22 -122q0 -64 22 -120t65 -100q44 -43 100 -65.5t120 -22.5q66 0 122 22.5t98 65.5q45 44 68 100t23 120q0 66 -23 122t-68 98q-42 45 -98 67t-122 22q-64 0 -120 -22t-100 -67z" />
    <glyph glyph-name="Ocircumflex" unicode="&#xd4;" 
d="M444 900l150 -150h-70l-115 115l-115 -115h-70l150 150h70zM50 349q0 76 28 141.5t76.5 114.5t114 77t140.5 28q77 0 143.5 -28t115 -77t76.5 -114.5t28 -141.5q0 -75 -28 -140.5t-76.5 -114t-115 -76.5t-143.5 -28q-75 0 -140.5 28t-114 76.5t-76.5 114t-28 140.5z
M189 569q-43 -42 -65 -98t-22 -122q0 -64 22 -120t65 -100q44 -43 100 -65.5t120 -22.5q66 0 122 22.5t98 65.5q45 44 68 100t23 120q0 66 -23 122t-68 98q-42 45 -98 67t-122 22q-64 0 -120 -22t-100 -67z" />
    <glyph glyph-name="Otilde" unicode="&#xd5;" 
d="M330 858q23 0 41 -5t33.5 -11t31.5 -11t34 -5q12 1 26 5t28 17l25 -42q-14 -15 -35 -23t-41 -8q-23 0 -40 5t-32.5 11t-31 11t-34.5 5q-11 0 -25.5 -4.5t-28.5 -17.5l-25 42q14 15 34.5 23t39.5 8zM50 349q0 76 28 141.5t76.5 114.5t114 77t140.5 28q77 0 143.5 -28
t115 -77t76.5 -114.5t28 -141.5q0 -75 -28 -140.5t-76.5 -114t-115 -76.5t-143.5 -28q-75 0 -140.5 28t-114 76.5t-76.5 114t-28 140.5zM189 569q-43 -42 -65 -98t-22 -122q0 -64 22 -120t65 -100q44 -43 100 -65.5t120 -22.5q66 0 122 22.5t98 65.5q45 44 68 100t23 120
q0 66 -23 122t-68 98q-42 45 -98 67t-122 22q-64 0 -120 -22t-100 -67z" />
    <glyph glyph-name="Odieresis" unicode="&#xd6;" 
d="M319 850v-91h-66v91h66zM567 850v-91h-66v91h66zM50 349q0 76 28 141.5t76.5 114.5t114 77t140.5 28q77 0 143.5 -28t115 -77t76.5 -114.5t28 -141.5q0 -75 -28 -140.5t-76.5 -114t-115 -76.5t-143.5 -28q-75 0 -140.5 28t-114 76.5t-76.5 114t-28 140.5zM189 569
q-43 -42 -65 -98t-22 -122q0 -64 22 -120t65 -100q44 -43 100 -65.5t120 -22.5q66 0 122 22.5t98 65.5q45 44 68 100t23 120q0 66 -23 122t-68 98q-42 45 -98 67t-122 22q-64 0 -120 -22t-100 -67z" />
    <glyph glyph-name="multiply" unicode="&#xd7;" horiz-adv-x="500" 
d="M410 364l222 -264h-65l-189 226l-189 -226h-65l221 264l-197 235h66l164 -196l164 196h65z" />
    <glyph glyph-name="Oslash" unicode="&#xd8;" 
d="M50 349q0 76 28 141.5t76.5 114.5t114 77t140.5 28q77 0 143.5 -28t115 -77t76.5 -114.5t28 -141.5q0 -75 -28 -140.5t-76.5 -114t-115 -76.5t-143.5 -28q-75 0 -140.5 28t-114 76.5t-76.5 114t-28 140.5zM189 569q-43 -42 -65 -98t-22 -122q0 -64 22 -120t65 -100
q44 -43 100 -65.5t120 -22.5q66 0 122 22.5t98 65.5q45 44 68 100t23 120q0 66 -23 122t-68 98q-42 45 -98 67t-122 22q-64 0 -120 -22t-100 -67zM772 700l-652 -700h-70l652 700h70z" />
    <glyph glyph-name="Ugrave" unicode="&#xd9;" horiz-adv-x="678" 
d="M336 750l-150 150h70l150 -150h-70zM569 284v416h50v-416q0 -59 -23.5 -112.5t-63.5 -94t-93.5 -64t-114.5 -23.5q-59 0 -112.5 23.5t-93.5 64t-63.5 94t-23.5 112.5v416h50v-416q2 -51 21.5 -95.5t52 -78t76 -53t93.5 -19.5q51 2 96 22t78 53t52 77t19 94z" />
    <glyph glyph-name="Uacute" unicode="&#xda;" horiz-adv-x="678" 
d="M466 900l-150 -150h-70l150 150h70zM569 700h50v-416q0 -59 -23.5 -112.5t-63.5 -94t-93.5 -64t-114.5 -23.5q-59 0 -112.5 23.5t-93.5 64t-63.5 94t-23.5 112.5v416h50v-416q2 -51 21.5 -95.5t52 -78t76 -53t93.5 -19.5q51 2 96 22t78 53t52 77t19 94v416z" />
    <glyph glyph-name="Ucircumflex" unicode="&#xdb;" horiz-adv-x="694" 
d="M385 900l150 -150h-70l-115 115l-115 -115h-70l150 150h70zM594 700h50v-416q0 -59 -23.5 -112.5t-63.5 -94t-93.5 -64t-114.5 -23.5q-59 0 -112.5 23.5t-93.5 64t-63.5 94t-23.5 112.5v416h50v-416q2 -51 21.5 -95.5t52 -78t76 -53t93.5 -19.5q51 2 96 22t78 53t52 77
t19 94v416z" />
    <glyph glyph-name="Udieresis" unicode="&#xdc;" horiz-adv-x="694" 
d="M259 850v-91h-66v91h66zM507 850v-91h-66v91h66zM594 284v416h50v-416q0 -59 -23.5 -112.5t-63.5 -94t-93.5 -64t-114.5 -23.5q-59 0 -112.5 23.5t-93.5 64t-63.5 94t-23.5 112.5v416h50v-416q2 -51 21.5 -95.5t52 -78t76 -53t93.5 -19.5q51 2 96 22t78 53t52 77t19 94z
" />
    <glyph glyph-name="Yacute" unicode="&#xdd;" horiz-adv-x="673" 
d="M486 900l-150 -150h-70l150 150h70zM337 349l236 351h60l-271 -401v-299h-50v299l-272 401h60z" />
    <glyph glyph-name="agrave" unicode="&#xe0;" horiz-adv-x="714" 
d="M364 750l-150 150h70l150 -150h-70zM614 0v210h-513v-210h-51v402q0 64 24.5 120.5t66.5 98t98.5 65.5t120.5 24q62 0 117 -24t96.5 -65.5t66 -98t24.5 -120.5v-402h-50zM614 402q-3 55 -23.5 102t-54.5 81t-79 53.5t-97 20.5q-56 -1 -103 -21.5t-81.5 -55t-54 -81
t-20.5 -99.5v-141h513v141z" />
    <glyph glyph-name="aacute" unicode="&#xe1;" horiz-adv-x="714" 
d="M502 900l-150 -150h-70l150 150h70zM614 0v210h-513v-210h-51v402q0 64 24.5 120.5t66.5 98t98.5 65.5t120.5 24q62 0 117 -24t96.5 -65.5t66 -98t24.5 -120.5v-402h-50zM614 402q-3 55 -23.5 102t-54.5 81t-79 53.5t-97 20.5q-56 -1 -103 -21.5t-81.5 -55t-54 -81
t-20.5 -99.5v-141h513v141z" />
    <glyph glyph-name="acircumflex" unicode="&#xe2;" horiz-adv-x="734" 
d="M404 900l150 -150h-70l-115 115l-115 -115h-70l150 150h70zM624 0v210h-513v-210h-51v402q0 64 24.5 120.5t66.5 98t98.5 65.5t120.5 24q62 0 117 -24t96.5 -65.5t66 -98t24.5 -120.5v-402h-50zM624 402q-3 55 -23.5 102t-54.5 81t-79 53.5t-97 20.5q-56 -1 -103 -21.5
t-81.5 -55t-54 -81t-20.5 -99.5v-141h513v141z" />
    <glyph glyph-name="atilde" unicode="&#xe3;" horiz-adv-x="714" 
d="M307 858q23 0 41 -5t33.5 -11t31.5 -11t34 -5q12 1 26 5t28 17l25 -42q-14 -15 -35 -23t-41 -8q-23 0 -40 5t-32.5 11t-31 11t-34.5 5q-11 0 -25.5 -4.5t-28.5 -17.5l-25 42q14 15 34.5 23t39.5 8zM614 0v210h-513v-210h-51v402q0 64 24.5 120.5t66.5 98t98.5 65.5
t120.5 24q62 0 117 -24t96.5 -65.5t66 -98t24.5 -120.5v-402h-50zM614 402q-3 55 -23.5 102t-54.5 81t-79 53.5t-97 20.5q-56 -1 -103 -21.5t-81.5 -55t-54 -81t-20.5 -99.5v-141h513v141z" />
    <glyph glyph-name="adieresis" unicode="&#xe4;" horiz-adv-x="734" 
d="M276 850v-91h-66v91h66zM524 850v-91h-66v91h66zM624 0v210h-513v-210h-51v402q0 64 24.5 120.5t66.5 98t98.5 65.5t120.5 24q62 0 117 -24t96.5 -65.5t66 -98t24.5 -120.5v-402h-50zM624 402q-3 55 -23.5 102t-54.5 81t-79 53.5t-97 20.5q-56 -1 -103 -21.5t-81.5 -55
t-54 -81t-20.5 -99.5v-141h513v141z" />
    <glyph glyph-name="ccedilla" unicode="&#xe7;" horiz-adv-x="807" 
d="M702 455q-22 65 -73 114q-42 45 -98 67t-122 22q-64 0 -120 -22t-100 -67q-43 -42 -65 -98t-22 -122q0 -64 22 -120t65 -100q44 -43 100 -65.5t120 -22.5q66 0 122 22.5t98 65.5q51 51 74 116h54q-15 -49 -42 -91.5t-64 -75t-83.5 -54t-98.5 -29.5l-21 -29q22 0 41 -6.5
t33 -18.5t22 -27.5t8 -33.5q0 -19 -9 -35t-25 -28t-36.5 -18.5t-44.5 -6.5q-45 0 -74 19t-37 47l48 12q5 -14 21 -22t42 -8q12 0 23.5 3t21 8.5t15.5 13t6 15.5q0 17 -17 27.5t-39 10.5q-32 0 -51 -22l-34 29l47 65q-75 0 -140.5 28t-114 76.5t-76.5 114t-28 140.5
q0 76 28 141.5t76.5 114.5t114 77t140.5 28q63 0 119 -19t101.5 -52.5t78 -80.5t49.5 -103h-55z" />
    <glyph glyph-name="egrave" unicode="&#xe8;" horiz-adv-x="591" 
d="M226 900l150 -150h-70l-150 150h70zM50 700h501v-50h-451v-260h300v-50h-300v-290h451v-50h-501v700z" />
    <glyph glyph-name="eacute" unicode="&#xe9;" horiz-adv-x="591" 
d="M436 900l-150 -150h-70l150 150h70zM50 700h501v-50h-451v-260h300v-50h-300v-290h451v-50h-501v700z" />
    <glyph glyph-name="ecircumflex" unicode="&#xea;" horiz-adv-x="621" 
d="M360 900l150 -150h-70l-115 115l-115 -115h-70l150 150h70zM80 700h501v-50h-451v-260h300v-50h-300v-290h451v-50h-501v700z" />
    <glyph glyph-name="edieresis" unicode="&#xeb;" horiz-adv-x="621" 
d="M239 850v-91h-66v91h66zM487 850v-91h-66v91h66zM80 700h501v-50h-451v-260h300v-50h-300v-290h451v-50h-501v700z" />
    <glyph glyph-name="igrave" unicode="&#xec;" horiz-adv-x="250" 
d="M150 750l-150 150h70l150 -150h-70zM100 700h50v-700h-50v700z" />
    <glyph glyph-name="iacute" unicode="&#xed;" horiz-adv-x="250" 
d="M250 900l-150 -150h-70l150 150h70zM100 700h50v-700h-50v700z" />
    <glyph glyph-name="icircumflex" unicode="&#xee;" horiz-adv-x="621" 
d="M360 900l150 -150h-70l-115 115l-115 -115h-70l150 150h70zM80 700h501v-50h-451v-260h300v-50h-300v-290h451v-50h-501v700z" />
    <glyph glyph-name="idieresis" unicode="&#xef;" horiz-adv-x="230" 
d="M24 850v-91h-66v91h66zM272 850v-91h-66v91h66zM90 700h50v-700h-50v700z" />
    <glyph glyph-name="ntilde" unicode="&#xf1;" horiz-adv-x="772" 
d="M337 858q23 0 41 -5t33.5 -11t31.5 -11t34 -5q12 1 26 5t28 17l25 -42q-14 -15 -35 -23t-41 -8q-23 0 -40 5t-32.5 11t-31 11t-34.5 5q-11 0 -25.5 -4.5t-28.5 -17.5l-25 42q14 15 34.5 23t39.5 8zM80 0v700h52l509 -622v622h51v-700h-53l-509 623v-623h-50z" />
    <glyph glyph-name="ograve" unicode="&#xf2;" horiz-adv-x="802" 
d="M414 750l-150 150h70l150 -150h-70zM40 349q0 76 28 141.5t76.5 114.5t114 77t140.5 28q77 0 143.5 -28t115 -77t76.5 -114.5t28 -141.5q0 -75 -28 -140.5t-76.5 -114t-115 -76.5t-143.5 -28q-75 0 -140.5 28t-114 76.5t-76.5 114t-28 140.5zM179 569q-43 -42 -65 -98
t-22 -122q0 -64 22 -120t65 -100q44 -43 100 -65.5t120 -22.5q66 0 122 22.5t98 65.5q45 44 68 100t23 120q0 66 -23 122t-68 98q-42 45 -98 67t-122 22q-64 0 -120 -22t-100 -67z" />
    <glyph glyph-name="oacute" unicode="&#xf3;" horiz-adv-x="802" 
d="M535 900l-150 -150h-70l150 150h70zM40 349q0 76 28 141.5t76.5 114.5t114 77t140.5 28q77 0 143.5 -28t115 -77t76.5 -114.5t28 -141.5q0 -75 -28 -140.5t-76.5 -114t-115 -76.5t-143.5 -28q-75 0 -140.5 28t-114 76.5t-76.5 114t-28 140.5zM179 569q-43 -42 -65 -98
t-22 -122q0 -64 22 -120t65 -100q44 -43 100 -65.5t120 -22.5q66 0 122 22.5t98 65.5q45 44 68 100t23 120q0 66 -23 122t-68 98q-42 45 -98 67t-122 22q-64 0 -120 -22t-100 -67z" />
    <glyph glyph-name="ocircumflex" unicode="&#xf4;" 
d="M444 900l150 -150h-70l-115 115l-115 -115h-70l150 150h70zM50 349q0 76 28 141.5t76.5 114.5t114 77t140.5 28q77 0 143.5 -28t115 -77t76.5 -114.5t28 -141.5q0 -75 -28 -140.5t-76.5 -114t-115 -76.5t-143.5 -28q-75 0 -140.5 28t-114 76.5t-76.5 114t-28 140.5z
M189 569q-43 -42 -65 -98t-22 -122q0 -64 22 -120t65 -100q44 -43 100 -65.5t120 -22.5q66 0 122 22.5t98 65.5q45 44 68 100t23 120q0 66 -23 122t-68 98q-42 45 -98 67t-122 22q-64 0 -120 -22t-100 -67z" />
    <glyph glyph-name="otilde" unicode="&#xf5;" 
d="M330 858q23 0 41 -5t33.5 -11t31.5 -11t34 -5q12 1 26 5t28 17l25 -42q-14 -15 -35 -23t-41 -8q-23 0 -40 5t-32.5 11t-31 11t-34.5 5q-11 0 -25.5 -4.5t-28.5 -17.5l-25 42q14 15 34.5 23t39.5 8zM50 349q0 76 28 141.5t76.5 114.5t114 77t140.5 28q77 0 143.5 -28
t115 -77t76.5 -114.5t28 -141.5q0 -75 -28 -140.5t-76.5 -114t-115 -76.5t-143.5 -28q-75 0 -140.5 28t-114 76.5t-76.5 114t-28 140.5zM189 569q-43 -42 -65 -98t-22 -122q0 -64 22 -120t65 -100q44 -43 100 -65.5t120 -22.5q66 0 122 22.5t98 65.5q45 44 68 100t23 120
q0 66 -23 122t-68 98q-42 45 -98 67t-122 22q-64 0 -120 -22t-100 -67z" />
    <glyph glyph-name="odieresis" unicode="&#xf6;" 
d="M319 850v-91h-66v91h66zM567 850v-91h-66v91h66zM50 349q0 76 28 141.5t76.5 114.5t114 77t140.5 28q77 0 143.5 -28t115 -77t76.5 -114.5t28 -141.5q0 -75 -28 -140.5t-76.5 -114t-115 -76.5t-143.5 -28q-75 0 -140.5 28t-114 76.5t-76.5 114t-28 140.5zM189 569
q-43 -42 -65 -98t-22 -122q0 -64 22 -120t65 -100q44 -43 100 -65.5t120 -22.5q66 0 122 22.5t98 65.5q45 44 68 100t23 120q0 66 -23 122t-68 98q-42 45 -98 67t-122 22q-64 0 -120 -22t-100 -67z" />
    <glyph glyph-name="divide" unicode="&#xf7;" horiz-adv-x="193" 
d="M481 239v-48h-431v48h431zM226 391q0 17 11.5 28.5t28.5 11.5q16 0 27 -11.5t11 -28.5q0 -16 -11 -27t-27 -11q-17 0 -28.5 11t-11.5 27zM226 38q0 17 11.5 28.5t28.5 11.5q16 0 27 -11.5t11 -28.5q0 -16 -11 -27t-27 -11q-17 0 -28.5 11t-11.5 27z" />
    <glyph glyph-name="ugrave" unicode="&#xf9;" horiz-adv-x="678" 
d="M336 750l-150 150h70l150 -150h-70zM569 284v416h50v-416q0 -59 -23.5 -112.5t-63.5 -94t-93.5 -64t-114.5 -23.5q-59 0 -112.5 23.5t-93.5 64t-63.5 94t-23.5 112.5v416h50v-416q2 -51 21.5 -95.5t52 -78t76 -53t93.5 -19.5q51 2 96 22t78 53t52 77t19 94z" />
    <glyph glyph-name="uacute" unicode="&#xfa;" horiz-adv-x="678" 
d="M466 900l-150 -150h-70l150 150h70zM569 700h50v-416q0 -59 -23.5 -112.5t-63.5 -94t-93.5 -64t-114.5 -23.5q-59 0 -112.5 23.5t-93.5 64t-63.5 94t-23.5 112.5v416h50v-416q2 -51 21.5 -95.5t52 -78t76 -53t93.5 -19.5q51 2 96 22t78 53t52 77t19 94v416z" />
    <glyph glyph-name="ucircumflex" unicode="&#xfb;" horiz-adv-x="694" 
d="M385 900l150 -150h-70l-115 115l-115 -115h-70l150 150h70zM594 700h50v-416q0 -59 -23.5 -112.5t-63.5 -94t-93.5 -64t-114.5 -23.5q-59 0 -112.5 23.5t-93.5 64t-63.5 94t-23.5 112.5v416h50v-416q2 -51 21.5 -95.5t52 -78t76 -53t93.5 -19.5q51 2 96 22t78 53t52 77
t19 94v416z" />
    <glyph glyph-name="udieresis" unicode="&#xfc;" horiz-adv-x="694" 
d="M259 850v-91h-66v91h66zM507 850v-91h-66v91h66zM594 284v416h50v-416q0 -59 -23.5 -112.5t-63.5 -94t-93.5 -64t-114.5 -23.5q-59 0 -112.5 23.5t-93.5 64t-63.5 94t-23.5 112.5v416h50v-416q2 -51 21.5 -95.5t52 -78t76 -53t93.5 -19.5q51 2 96 22t78 53t52 77t19 94z
" />
    <glyph glyph-name="yacute" unicode="&#xfd;" horiz-adv-x="673" 
d="M486 900l-150 -150h-70l150 150h70zM337 349l236 351h60l-271 -401v-299h-50v299l-272 401h60z" />
    <glyph glyph-name="ydieresis" unicode="&#xff;" horiz-adv-x="673" 
d="M246 850v-91h-66v91h66zM494 850v-91h-66v91h66zM337 349l236 351h60l-271 -401v-299h-50v299l-272 401h60z" />
    <glyph glyph-name="Ydieresis" unicode="&#x178;" horiz-adv-x="673" 
d="M246 850v-91h-66v91h66zM494 850v-91h-66v91h66zM337 349l236 351h60l-271 -401v-299h-50v299l-272 401h60z" />
    <glyph glyph-name="circumflex" unicode="&#x2c6;" horiz-adv-x="500" 
d="M385 900l150 -150h-70l-115 115l-115 -115h-70l150 150h70z" />
    <glyph glyph-name="ring" unicode="&#x2da;" horiz-adv-x="500" 
 />
    <glyph glyph-name="tilde" unicode="&#x2dc;" horiz-adv-x="500" 
d="M225 623q23 0 41 -5t33.5 -11t31.5 -11t34 -5q12 1 26 5t28 17l25 -42q-14 -15 -35 -23t-41 -8q-23 0 -40 5t-32.5 11t-31 11t-34.5 5q-11 0 -25.5 -4.5t-28.5 -17.5l-25 42q14 15 34.5 23t39.5 8z" />
    <glyph glyph-name="hungarumlaut" unicode="&#x2dd;" horiz-adv-x="500" 
 />
    <glyph glyph-name="endash" unicode="&#x2013;" horiz-adv-x="500" 
d="M510 295v-48h-390v48h390z" />
    <glyph glyph-name="emdash" unicode="&#x2014;" horiz-adv-x="500" 
d="M580 295v-48h-540v48h540z" />
    <glyph glyph-name="quoteleft" unicode="&#x2018;" horiz-adv-x="216" 
d="M118 480l-67 220h53l66 -220h-52z" />
    <glyph glyph-name="quoteright" unicode="&#x2019;" horiz-adv-x="193" 
d="M39 480l66 220h53l-67 -220h-52z" />
    <glyph glyph-name="quotedblleft" unicode="&#x201c;" horiz-adv-x="333" 
d="M218 480l-67 220h53l66 -220h-52zM118 480l-67 220h53l66 -220h-52z" />
    <glyph glyph-name="quotedblright" unicode="&#x201d;" horiz-adv-x="333" 
d="M64 480l66 220h53l-67 -220h-52zM164 480l66 220h53l-67 -220h-52z" />
    <glyph glyph-name="quotedblbase" unicode="&#x201e;" horiz-adv-x="500" 
 />
    <glyph glyph-name="bullet" unicode="&#x2022;" horiz-adv-x="833" 
 />
    <glyph glyph-name="ellipsis" unicode="&#x2026;" horiz-adv-x="780" 
d="M148 91v-91h-66v91h66zM408 91v-91h-66v91h66zM668 91v-91h-66v91h66z" />
    <glyph glyph-name="perthousand" unicode="&#x2030;" horiz-adv-x="524" 
d="M548 705h48l-350 -705h-48zM93 520q0 -28 8.5 -53t23 -43.5t34 -29.5t42.5 -11q22 0 42 11t35 29.5t23.5 43.5t8.5 53q0 29 -8.5 54.5t-23.5 44.5t-35 30t-42 11q-23 0 -42.5 -11t-34 -30t-23 -44.5t-8.5 -54.5zM53 520q0 37 11.5 70t31.5 57.5t47 38.5t58 14t58 -14
t47 -38.5t32 -57.5t12 -70q0 -36 -12 -68t-32 -56.5t-47 -38.5t-58 -14t-58 14t-47 38.5t-31.5 56.5t-11.5 68zM482 178q0 -28 8.5 -53t23 -43.5t34 -29.5t42.5 -11q22 0 42 11t35 29.5t23.5 43.5t8.5 53q0 29 -8.5 54.5t-23.5 44.5t-35 30t-42 11q-23 0 -42.5 -11t-34 -30
t-23 -44.5t-8.5 -54.5zM442 178q0 37 11.5 70t31.5 57.5t47 38.5t58 14t58 -14t47 -38.5t32 -57.5t12 -70q0 -36 -12 -68t-32 -56.5t-47 -38.5t-58 -14t-58 14t-47 38.5t-31.5 56.5t-11.5 68zM828 178q0 -28 8.5 -53t23 -43.5t34 -29.5t42.5 -11q22 0 42 11t35 29.5
t23.5 43.5t8.5 53q0 29 -8.5 54.5t-23.5 44.5t-35 30t-42 11q-23 0 -42.5 -11t-34 -30t-23 -44.5t-8.5 -54.5zM788 178q0 37 11.5 70t31.5 57.5t47 38.5t58 14t58 -14t47 -38.5t32 -57.5t12 -70q0 -36 -12 -68t-32 -56.5t-47 -38.5t-58 -14t-58 14t-47 38.5t-31.5 56.5
t-11.5 68z" />
    <glyph glyph-name="fraction" unicode="&#x2044;" horiz-adv-x="524" 
d="M428 705h55l-375 -745h-55z" />
    <glyph glyph-name="Euro" unicode="&#x20ac;" horiz-adv-x="696" 
d="M92 350q0 -11 0.5 -22t1.5 -22h321l-10 -48h-302q12 -48 36 -88t56.5 -69t71.5 -45t83 -16q42 0 80.5 15t70 42.5t55.5 65t38 82.5h52q-14 -56 -42.5 -102.5t-67.5 -80.5t-86.5 -53t-99.5 -19q-53 0 -101.5 20t-87.5 56t-67.5 85t-41.5 107h-118l10 48h100q-1 11 -1.5 22
t-0.5 22t0.5 22t1.5 22h-110l10 48h108q13 57 41.5 106t67.5 85t87.5 56.5t101.5 20.5q52 0 99.5 -19t86 -53t67 -81t43.5 -102h-52q-14 45 -38 82.5t-55.5 64.5t-70 42.5t-80.5 15.5q-44 0 -83 -16.5t-71.5 -45.5t-56.5 -69t-36 -87h312l-10 -48h-310q-3 -23 -3 -44z" />
    <glyph glyph-name="trademark" unicode="&#x2122;" horiz-adv-x="500" 
 />
    <glyph glyph-name="minus" unicode="&#x2212;" horiz-adv-x="556" 
d="M529 264v-48h-480v48h480z" />
    <glyph glyph-name="Aring" horiz-adv-x="734" 
d="M371 763q24 0 40.5 17t16.5 41q0 23 -16.5 40t-40.5 17t-41 -17t-17 -40q0 -24 17 -41t41 -17zM371 730q-19 0 -35.5 7.5t-29 20t-19.5 29t-7 34.5t7 34.5t19.5 29t29 20t35.5 7.5t35.5 -7.5t29 -20t19.5 -29t7 -34.5t-7 -34.5t-19.5 -29t-29 -20t-35.5 -7.5zM624 0v210
h-513v-210h-51v402q0 64 24.5 120.5t66.5 98t98.5 65.5t120.5 24q62 0 117 -24t96.5 -65.5t66 -98t24.5 -120.5v-402h-50zM624 402q-3 55 -23.5 102t-54.5 81t-79 53.5t-97 20.5q-56 -1 -103 -21.5t-81.5 -55t-54 -81t-20.5 -99.5v-141h513v141z" />
    <glyph glyph-name="quotedblright.001" horiz-adv-x="500" 
d="M293 500l-52 200h53l51 -200h-52zM193 500l-52 200h53l51 -200h-52z" />
    </font>
</defs>
</svg>
